<svg width="32" height="32" viewBox="0 0 32 32" fill="none" xmlns="http://www.w3.org/2000/svg">
<path d="M32 16C32 24.8366 24.8366 32 16 32C7.16344 32 0 24.8366 0 16C0 7.16344 7.16344 0 16 0C24.8366 0 32 7.16344 32 16Z" fill="#810200"/>
<path d="M30.9479 12.0348C27.2274 8.14882 19.0974 8.32212 17.1683 8.42646C18.2361 6.96919 20.0275 5.58119 20.0619 5.54661L23.0246 3.36064C23.0935 3.29118 23.1279 3.18711 23.0589 3.08303C22.99 3.01357 22.8866 2.97896 22.8177 3.01357C20.6473 4.124 17.3403 5.78939 16.0656 6.27515C16.1 6.24054 16.1346 6.20569 16.169 6.20569C16.6856 5.82401 17.4091 5.26881 17.6848 4.67896C17.7191 4.6095 17.7191 4.50543 17.6504 4.43596C17.5815 4.3665 17.4781 4.3665 17.4092 4.40135C16.2379 5.16469 14.7911 5.99754 14.5499 5.99754C14.0676 5.99754 10.8294 7.17717 8.96917 9.01611C8.14233 9.8489 7.24671 10.3693 6.28214 10.9245C5.2486 11.5143 4.21506 12.139 3.21616 13.1797C2.32054 14.1166 1.11476 15.6433 1.01141 17.8985C0.942925 19.0089 1.18395 20.1539 1.70083 21.3684C1.70083 21.403 1.70083 21.403 1.73519 21.4379C2.38978 23.0341 3.56099 24.734 5.18011 26.5038C5.21447 26.5732 5.3178 26.5732 5.38676 26.5732C5.38676 26.5732 5.45573 26.5386 5.49009 26.5386C5.55906 26.504 5.62778 26.4692 5.73135 26.3651L9.21066 28.551C9.27963 28.5857 9.38295 28.5857 9.45192 28.5164C9.52089 28.447 9.52089 28.3429 9.45192 28.2734L9.41756 28.2388C10.2098 28.5859 11.2777 29.0022 11.8979 28.69C11.9323 28.69 11.9669 28.6554 11.9669 28.6205C11.9669 28.6205 12.0012 28.6205 12.0012 28.5859C12.8625 27.892 12.3802 26.5735 12.3458 26.5388C12.3115 26.5042 12.2768 26.4348 12.2425 26.4348L6.5585 24.1447C6.62746 23.3467 6.52413 22.3058 6.21391 20.9526C6.17954 20.8485 6.17954 20.7096 6.14494 20.6055C6.7649 20.5709 8.72863 20.6055 9.17653 22.1322C9.21089 22.2363 9.31422 22.3058 9.41779 22.2709H9.45215C9.52112 22.2363 9.55548 22.1322 9.55548 22.0628C9.55548 22.0282 8.90089 19.1483 6.14495 18.8707C6.17931 18.6277 6.24828 18.3849 6.35161 18.1768C6.79952 18.2114 8.17742 18.4198 9.21089 19.1137C9.76213 19.634 10.1065 20.0157 10.1065 20.0505C10.1755 20.12 10.2788 20.12 10.3478 20.0852H10.3821C10.4511 20.0157 10.4855 19.9116 10.4165 19.8422C10.1752 19.4259 9.83089 19.0788 9.41759 18.8361C8.83199 18.2462 7.97073 17.5175 7.07517 16.8582C7.14414 16.7541 7.24747 16.6501 7.31643 16.5806C7.86767 16.7541 10.4167 17.5521 11.106 18.9053C11.1403 19.0094 11.2437 19.044 11.3472 19.0094H11.3816C11.4506 18.9748 11.4849 18.8707 11.4849 18.8012C11.4506 18.6625 10.8303 15.956 8.6946 15.4356C8.86689 15.3316 9.03919 15.2275 9.17687 15.1234C9.65915 15.2275 12.0705 15.8173 14.3099 15.2275L18.5466 16.9273C18.6155 16.9619 18.6499 16.9619 18.7188 16.9273C18.7532 16.8927 18.7878 16.8927 18.7878 16.8578C18.8222 16.7537 18.7878 16.6497 18.7188 16.6148L14.9983 14.3942C14.964 14.3596 14.9294 14.3596 14.895 14.3596C14.4471 14.3942 13.9994 14.3942 13.5515 14.429L14.6194 13.9779L18.6499 15.7822C18.7189 15.8168 18.7532 15.8168 18.8222 15.7822C18.8566 15.7476 18.8912 15.7476 18.8912 15.7128C18.9255 15.6087 18.8912 15.5046 18.8222 15.4698L14.826 13.1797L15.5839 12.7286C16.2039 12.9367 19.9245 14.2899 21.4059 16.1288C21.6472 16.4759 21.7848 16.7186 21.7848 16.7186C21.8538 16.8227 21.9571 16.8573 22.0605 16.7881C22.1638 16.7535 22.1982 16.6146 22.1294 16.5105C22.0261 16.3023 21.9228 16.1288 21.7848 15.9553C21.0959 14.9143 19.3735 12.7978 16.8931 12.0345L17.1343 11.965C20.8548 12.7283 23.2663 15.8858 23.3007 15.9204C23.3697 15.9899 23.4384 16.0245 23.542 15.9899C23.611 15.9553 23.6453 15.8512 23.6453 15.7818C23.611 15.6777 23.4041 15.2614 21.5782 13.2141C19.5802 11.0282 16.3075 10.9589 16.1696 10.9589H16.1006L14.6194 11.4106C15.4463 10.7167 16.1353 10.0228 16.5142 9.43272C17.5477 9.46733 25.6088 9.95307 28.5714 13.7352C28.6404 13.8047 28.7437 13.8393 28.8127 13.7698C28.8127 13.7698 28.847 13.7698 28.847 13.7352C28.916 13.6657 28.9504 13.5617 28.8814 13.4576C25.9531 9.7449 18.4089 9.15511 16.7553 9.05102C16.7897 8.98156 16.8586 8.87749 16.893 8.80802C17.8919 8.73856 26.8832 8.28767 30.6727 12.2777C30.7416 12.3472 30.8449 12.3472 30.9139 12.3123L30.9483 12.2777C31.0172 12.2431 31.0169 12.1043 30.9479 12.0348Z" fill="#F2BC16"/>
</svg>
