<svg width="14" height="31" viewBox="0 0 14 31" fill="none" xmlns="http://www.w3.org/2000/svg">
<path d="M2.94194 12C2.37419 12 1.90968 11.8571 1.54839 11.5714C1.1871 11.2857 0.890323 10.9206 0.658065 10.4762C0.4 9.93651 0.219355 9.38095 0.116129 8.80953C0.0387097 8.20635 0 7.71429 0 7.33333C0 5.77778 0.322581 4.36508 0.967742 3.09524C1.6129 1.8254 2.61935 0.793652 3.9871 0L4.33548 0.857143C3.53548 1.26984 2.83871 1.92064 2.24516 2.80952C1.67742 3.69841 1.39355 4.60318 1.39355 5.52381C1.39355 5.90476 1.43226 6.2381 1.50968 6.52381C1.92258 6.11111 2.4 5.90476 2.94194 5.90476C3.6129 5.90476 4.19355 6.1746 4.68387 6.71429C5.17419 7.25397 5.41936 8 5.41936 8.95238C5.41936 9.84127 5.17419 10.5714 4.68387 11.1429C4.19355 11.7143 3.6129 12 2.94194 12ZM9.52258 12C8.95484 12 8.49032 11.8571 8.12903 11.5714C7.76774 11.2857 7.47097 10.9206 7.23871 10.4762C6.98064 9.93651 6.8 9.38095 6.69677 8.80953C6.61936 8.20635 6.58065 7.71429 6.58065 7.33333C6.58065 5.77778 6.90323 4.36508 7.54839 3.09524C8.19355 1.8254 9.2 0.793652 10.5677 0L10.9161 0.857143C10.1161 1.26984 9.41936 1.92064 8.82581 2.80952C8.25806 3.69841 7.97419 4.60318 7.97419 5.52381C7.97419 5.90476 8.0129 6.2381 8.09032 6.52381C8.50323 6.11111 8.98064 5.90476 9.52258 5.90476C10.1935 5.90476 10.7742 6.1746 11.2645 6.71429C11.7548 7.25397 12 8 12 8.95238C12 9.84127 11.7548 10.5714 11.2645 11.1429C10.7742 11.7143 10.1935 12 9.52258 12Z" fill="#A64D4C"/>
</svg>
