<svg width="38" height="31" viewBox="0 0 38 31" fill="none" xmlns="http://www.w3.org/2000/svg">
<path d="M9.71961 30.6C7.95961 30.6 6.51961 30.24 5.39961 29.52C4.27961 28.8 3.35961 27.88 2.63961 26.76C1.83961 25.4 1.27961 24 0.959609 22.56C0.719609 21.04 0.599609 19.8 0.599609 18.84C0.599609 14.92 1.59961 11.36 3.59961 8.15999C5.59961 4.95999 8.71961 2.35999 12.9596 0.359985L14.0396 2.51999C11.5596 3.55999 9.39961 5.19999 7.55961 7.43999C5.79961 9.67999 4.91961 11.96 4.91961 14.28C4.91961 15.24 5.03961 16.08 5.27961 16.8C6.55961 15.76 8.03961 15.24 9.71961 15.24C11.7996 15.24 13.5996 15.92 15.1196 17.28C16.6396 18.64 17.3996 20.52 17.3996 22.92C17.3996 25.16 16.6396 27 15.1196 28.44C13.5996 29.88 11.7996 30.6 9.71961 30.6ZM30.1196 30.6C28.3596 30.6 26.9196 30.24 25.7996 29.52C24.6796 28.8 23.7596 27.88 23.0396 26.76C22.2396 25.4 21.6796 24 21.3596 22.56C21.1196 21.04 20.9996 19.8 20.9996 18.84C20.9996 14.92 21.9996 11.36 23.9996 8.15999C25.9996 4.95999 29.1196 2.35999 33.3596 0.359985L34.4396 2.51999C31.9596 3.55999 29.7996 5.19999 27.9596 7.43999C26.1996 9.67999 25.3196 11.96 25.3196 14.28C25.3196 15.24 25.4396 16.08 25.6796 16.8C26.9596 15.76 28.4396 15.24 30.1196 15.24C32.1996 15.24 33.9996 15.92 35.5196 17.28C37.0396 18.64 37.7996 20.52 37.7996 22.92C37.7996 25.16 37.0396 27 35.5196 28.44C33.9996 29.88 32.1996 30.6 30.1196 30.6Z" fill="#A64D4C"/>
</svg>
