<svg width="38" height="31" viewBox="0 0 38 31" fill="none" xmlns="http://www.w3.org/2000/svg">
<path d="M28.5605 0.359985C30.3205 0.359985 31.7605 0.719985 32.8805 1.43999C34.0005 2.15999 34.9205 3.07999 35.6405 4.19999C36.5205 5.47999 37.0805 6.87999 37.3205 8.39999C37.5605 9.91999 37.6805 11.16 37.6805 12.12C37.6805 16.04 36.6805 19.6 34.6805 22.8C32.6805 26 29.5605 28.6 25.3205 30.6L24.2405 28.44C26.7205 27.4 28.8405 25.76 30.6005 23.52C32.4405 21.28 33.3605 19 33.3605 16.68C33.3605 15.72 33.2405 14.88 33.0005 14.16C31.7205 15.2 30.2405 15.72 28.5605 15.72C26.4805 15.72 24.6805 15.04 23.1605 13.68C21.6405 12.32 20.8805 10.44 20.8805 8.03999C20.8805 5.79999 21.6405 3.95999 23.1605 2.51999C24.6805 1.07999 26.4805 0.359985 28.5605 0.359985ZM8.16047 0.359985C9.92047 0.359985 11.3605 0.719985 12.4805 1.43999C13.6005 2.15999 14.5205 3.07999 15.2405 4.19999C16.1205 5.47999 16.6805 6.87999 16.9205 8.39999C17.1605 9.91999 17.2805 11.16 17.2805 12.12C17.2805 16.04 16.2805 19.6 14.2805 22.8C12.2805 26 9.16047 28.6 4.92047 30.6L3.84047 28.44C6.32047 27.4 8.44047 25.76 10.2005 23.52C12.0405 21.28 12.9605 19 12.9605 16.68C12.9605 15.72 12.8405 14.88 12.6005 14.16C11.3205 15.2 9.84047 15.72 8.16047 15.72C6.08047 15.72 4.28047 15.04 2.76047 13.68C1.24047 12.32 0.480469 10.44 0.480469 8.03999C0.480469 5.79999 1.24047 3.95999 2.76047 2.51999C4.28047 1.07999 6.08047 0.359985 8.16047 0.359985Z" fill="#A64D4C"/>
</svg>
