<svg width="13" height="11" viewBox="0 0 13 11" fill="none" xmlns="http://www.w3.org/2000/svg">
<path d="M3.2402 10.2001C2.65353 10.2001 2.17353 10.0801 1.8002 9.84012C1.42686 9.60012 1.1202 9.29345 0.880195 8.92012C0.613529 8.46678 0.426862 8.00012 0.320195 7.52012C0.240195 7.01345 0.200195 6.60012 0.200195 6.28012C0.200195 4.97345 0.533529 3.78679 1.2002 2.72012C1.86686 1.65345 2.90686 0.786785 4.3202 0.120117L4.6802 0.840117C3.85353 1.18678 3.13353 1.73345 2.5202 2.48012C1.93353 3.22678 1.6402 3.98678 1.6402 4.76012C1.6402 5.08012 1.6802 5.36012 1.7602 5.60012C2.18686 5.25345 2.6802 5.08012 3.2402 5.08012C3.93353 5.08012 4.53353 5.30678 5.0402 5.76012C5.54686 6.21345 5.8002 6.84012 5.8002 7.64012C5.8002 8.38678 5.54686 9.00012 5.0402 9.48012C4.53353 9.96012 3.93353 10.2001 3.2402 10.2001ZM10.0402 10.2001C9.45353 10.2001 8.97353 10.0801 8.6002 9.84012C8.22686 9.60012 7.9202 9.29345 7.6802 8.92012C7.41353 8.46678 7.22686 8.00012 7.1202 7.52012C7.0402 7.01345 7.0002 6.60012 7.0002 6.28012C7.0002 4.97345 7.33353 3.78679 8.0002 2.72012C8.66686 1.65345 9.70686 0.786785 11.1202 0.120117L11.4802 0.840117C10.6535 1.18678 9.93353 1.73345 9.3202 2.48012C8.73353 3.22678 8.4402 3.98678 8.4402 4.76012C8.4402 5.08012 8.4802 5.36012 8.56019 5.60012C8.98686 5.25345 9.4802 5.08012 10.0402 5.08012C10.7335 5.08012 11.3335 5.30678 11.8402 5.76012C12.3469 6.21345 12.6002 6.84012 12.6002 7.64012C12.6002 8.38678 12.3469 9.00012 11.8402 9.48012C11.3335 9.96012 10.7335 10.2001 10.0402 10.2001Z" fill="#D9A913"/>
</svg>
