<svg width="14" height="31" viewBox="0 0 14 31" fill="none" xmlns="http://www.w3.org/2000/svg">
<path d="M9.05806 0C9.62581 0 10.0903 0.142857 10.4516 0.428572C10.8129 0.714286 11.1097 1.07937 11.3419 1.52381C11.6258 2.03175 11.8065 2.5873 11.8839 3.19048C11.9613 3.79365 12 4.28572 12 4.66667C12 6.22222 11.6774 7.63492 11.0323 8.90476C10.3871 10.1746 9.38065 11.2063 8.0129 12L7.66452 11.1429C8.46452 10.7302 9.14839 10.0794 9.71613 9.19048C10.3097 8.30159 10.6065 7.39683 10.6065 6.47619C10.6065 6.09524 10.5677 5.7619 10.4903 5.47619C10.0774 5.88889 9.6 6.09524 9.05806 6.09524C8.3871 6.09524 7.80645 5.8254 7.31613 5.28572C6.82581 4.74603 6.58065 4 6.58065 3.04762C6.58065 2.15873 6.82581 1.42857 7.31613 0.857143C7.80645 0.285714 8.3871 0 9.05806 0ZM2.47742 0C3.04516 0 3.50968 0.142857 3.87097 0.428572C4.23226 0.714286 4.52903 1.07937 4.76129 1.52381C5.04516 2.03175 5.22581 2.5873 5.30323 3.19048C5.38065 3.79365 5.41936 4.28572 5.41936 4.66667C5.41936 6.22222 5.09677 7.63492 4.45161 8.90476C3.80645 10.1746 2.8 11.2063 1.43226 12L1.08387 11.1429C1.88387 10.7302 2.56774 10.0794 3.13548 9.19048C3.72903 8.30159 4.02581 7.39683 4.02581 6.47619C4.02581 6.09524 3.9871 5.7619 3.90968 5.47619C3.49677 5.88889 3.01936 6.09524 2.47742 6.09524C1.80645 6.09524 1.22581 5.8254 0.735484 5.28572C0.245161 4.74603 0 4 0 3.04762C0 2.15873 0.245161 1.42857 0.735484 0.857143C1.22581 0.285714 1.80645 0 2.47742 0Z" fill="#A64D4C"/>
</svg>
