<svg width="13" height="11" viewBox="0 0 13 11" fill="none" xmlns="http://www.w3.org/2000/svg">
<path d="M9.52016 0.120117C10.1068 0.120117 10.5868 0.240117 10.9602 0.480117C11.3335 0.720117 11.6402 1.02678 11.8802 1.40012C12.1735 1.82678 12.3602 2.29345 12.4402 2.80012C12.5202 3.30678 12.5602 3.72012 12.5602 4.04012C12.5602 5.34678 12.2268 6.53345 11.5602 7.60012C10.8935 8.66679 9.85349 9.53345 8.44016 10.2001L8.08016 9.48012C8.90682 9.13345 9.61349 8.58678 10.2002 7.84012C10.8135 7.09345 11.1202 6.33345 11.1202 5.56012C11.1202 5.24012 11.0802 4.96012 11.0002 4.72012C10.5735 5.06678 10.0802 5.24012 9.52016 5.24012C8.82682 5.24012 8.22682 5.01345 7.72016 4.56012C7.21349 4.10679 6.96016 3.48012 6.96016 2.68012C6.96016 1.93345 7.21349 1.32012 7.72016 0.840117C8.22682 0.360117 8.82682 0.120117 9.52016 0.120117ZM2.72016 0.120117C3.30682 0.120117 3.78682 0.240117 4.16016 0.480117C4.53349 0.720117 4.84016 1.02678 5.08016 1.40012C5.37349 1.82678 5.56016 2.29345 5.64016 2.80012C5.72016 3.30678 5.76016 3.72012 5.76016 4.04012C5.76016 5.34678 5.42682 6.53345 4.76016 7.60012C4.09349 8.66679 3.05349 9.53345 1.64016 10.2001L1.28016 9.48012C2.10682 9.13345 2.81349 8.58678 3.40016 7.84012C4.01349 7.09345 4.32016 6.33345 4.32016 5.56012C4.32016 5.24012 4.28016 4.96012 4.20016 4.72012C3.77349 5.06678 3.28016 5.24012 2.72016 5.24012C2.02682 5.24012 1.42682 5.01345 0.920156 4.56012C0.41349 4.10679 0.160156 3.48012 0.160156 2.68012C0.160156 1.93345 0.41349 1.32012 0.920156 0.840117C1.42682 0.360117 2.02682 0.120117 2.72016 0.120117Z" fill="#D9A913"/>
</svg>
