<svg width="67" height="67" viewBox="0 0 67 67" fill="none" xmlns="http://www.w3.org/2000/svg">
<g clip-path="url(#clip0_26_21)">
<path d="M-22.6403 21.9799C-12.6694 11.5654 9.11903 12.0299 14.2892 12.3095C11.4273 8.40403 6.62629 4.68418 6.53413 4.59152L-1.40571 -1.26688C-1.59054 -1.45304 -1.68263 -1.73195 -1.4978 -2.01086C-1.31297 -2.19702 -1.03605 -2.28978 -0.851223 -2.19702C4.96534 0.778921 13.8281 5.24217 17.2442 6.544C17.1521 6.45125 17.0594 6.35784 16.9673 6.35784C15.5827 5.33494 13.6437 3.84701 12.9049 2.26621C12.8128 2.08005 12.8128 1.80114 12.997 1.61498C13.1818 1.42882 13.4587 1.42882 13.6436 1.52223C16.7824 3.56796 20.66 5.8 21.3065 5.8C22.599 5.8 31.2774 8.96142 36.2627 13.8898C38.4787 16.1217 40.8789 17.5163 43.464 19.0043C46.2339 20.585 49.0038 22.2592 51.6808 25.0482C54.0811 27.559 57.3126 31.6506 57.5895 37.6945C57.7731 40.6704 57.1271 43.739 55.7419 46.994C55.7419 47.0867 55.7419 47.0867 55.6498 47.1801C53.8955 51.4579 50.7567 56.0138 46.4174 60.7567C46.3253 60.9428 46.0484 60.9428 45.8636 60.9428C45.8636 60.9428 45.6788 60.8501 45.5867 60.8501C45.4018 60.7573 45.2177 60.6639 44.9401 60.385L35.6156 66.2434C35.4307 66.3362 35.1538 66.3362 34.969 66.1507C34.7841 65.9645 34.7841 65.6856 34.969 65.4994L35.0611 65.4067C32.9378 66.3368 30.0759 67.4524 28.4137 66.6157C28.3217 66.6157 28.2289 66.523 28.2289 66.4296C28.2289 66.4296 28.1368 66.4296 28.1368 66.3368C25.8287 64.4772 27.1212 60.9435 27.2133 60.8507C27.3054 60.7579 27.3982 60.5718 27.4903 60.5718L42.7233 54.4344C42.5385 52.2958 42.8154 49.506 43.6468 45.8795C43.7389 45.6006 43.7389 45.2283 43.8317 44.9494C42.1702 44.8566 36.9074 44.9494 35.707 49.041C35.6149 49.3199 35.338 49.5061 35.0604 49.4127H34.9683C34.7835 49.3199 34.6914 49.041 34.6914 48.8549C34.6914 48.7621 36.4457 41.044 43.8316 40.3C43.7396 39.6487 43.5547 38.9982 43.2778 38.4404C42.0774 38.5331 38.3846 39.0916 35.6149 40.9512C34.1376 42.3458 33.2147 43.3687 33.2147 43.4621C33.0298 43.6482 32.7529 43.6482 32.5681 43.5548H32.476C32.2912 43.3686 32.1991 43.0897 32.3839 42.9036C33.0305 41.7879 33.9533 40.8578 35.061 40.2073C36.6304 38.6265 38.9386 36.6736 41.3387 34.9066C41.1538 34.6277 40.8769 34.3488 40.6921 34.1626C39.2147 34.6277 32.3833 36.7663 30.5361 40.3928C30.444 40.6717 30.1671 40.7645 29.8896 40.6717H29.7975C29.6126 40.579 29.5205 40.3001 29.5205 40.1139C29.6126 39.7422 31.2749 32.4886 36.9986 31.0941C36.5368 30.8152 36.0751 30.5363 35.7061 30.2573C34.4136 30.5363 27.9511 32.1169 21.9497 30.5363L10.5954 35.0917C10.4105 35.1844 10.3184 35.1844 10.1336 35.0917C10.0415 34.9989 9.94877 34.9989 9.94877 34.9055C9.85668 34.6266 9.94877 34.3477 10.1336 34.2543L20.1046 28.3031C20.1967 28.2103 20.2894 28.2103 20.3815 28.2103C21.5819 28.303 22.7817 28.303 23.9821 28.3965L21.1202 27.1874L10.3184 32.0229C10.1335 32.1157 10.0414 32.1157 9.85661 32.0229C9.76452 31.9302 9.67179 31.9302 9.67179 31.8368C9.57969 31.5579 9.67178 31.279 9.85661 31.1856L20.5663 25.0482L18.5352 23.8392C16.8737 24.397 6.90258 28.0234 2.93233 32.9518C2.28575 33.8819 1.91673 34.5325 1.91673 34.5325C1.7319 34.8114 1.45498 34.9042 1.17806 34.7187C0.901138 34.6259 0.809048 34.2536 0.993233 33.9747C1.27015 33.4169 1.54707 32.9518 1.91673 32.4867C3.76304 29.6969 8.37923 24.0247 15.0267 21.9789L14.3801 21.7928C4.40916 23.8385 -2.0535 32.3006 -2.14582 32.3934C-2.33065 32.5795 -2.51484 32.6723 -2.7924 32.5795C-2.97723 32.4868 -3.06933 32.2079 -3.06933 32.0217C-2.97724 31.7428 -2.42274 30.6272 2.47043 25.1405C7.82521 19.2821 16.596 19.0966 16.9656 19.0966H17.1504L21.12 20.3069C18.9041 18.4473 17.0576 16.5877 16.042 15.0063C13.2722 15.099 -8.33144 16.4008 -16.2713 26.5369C-16.4561 26.7231 -16.733 26.8159 -16.9179 26.6297C-16.9179 26.6297 -17.01 26.6297 -17.01 26.5369C-17.1948 26.3508 -17.2869 26.0719 -17.102 25.793C-9.2542 15.8429 10.9644 14.2623 15.3959 13.9833C15.3038 13.7972 15.119 13.5183 15.0269 13.3321C12.3499 13.1459 -11.747 11.9376 -21.9026 22.6309C-22.0874 22.8171 -22.3643 22.8171 -22.5492 22.7236L-22.6413 22.6309C-22.8261 22.5381 -22.8261 22.1665 -22.6413 21.9803L-22.6403 21.9799Z" fill="#5A0100"/>
</g>
<defs>
<clipPath id="clip0_26_21">
<rect width="67" height="67" fill="white" transform="matrix(-1 0 0 1 67 0)"/>
</clipPath>
</defs>
</svg>
