<svg width="27" height="27" viewBox="0 0 27 27" fill="none" xmlns="http://www.w3.org/2000/svg">
<g clip-path="url(#clip0_28_49)">
<path d="M33.7277 8.13492C30.0072 4.24892 21.8772 4.42222 19.948 4.52656C21.0159 3.06929 22.8073 1.68128 22.8417 1.64671L25.8043 -0.53926C25.8733 -0.608722 25.9077 -0.712795 25.8387 -0.816867C25.7697 -0.88633 25.6664 -0.920939 25.5974 -0.886329C23.4271 0.224098 20.1201 1.88949 18.8454 2.37525C18.8798 2.34064 18.9144 2.30579 18.9487 2.30579C19.4654 1.92411 20.1889 1.36891 20.4646 0.779057C20.4989 0.709595 20.4989 0.605523 20.4302 0.536061C20.3612 0.466599 20.2579 0.466598 20.1889 0.501451C19.0177 1.26478 17.5709 2.09764 17.3297 2.09764C16.8474 2.09764 13.6091 3.27727 11.749 5.11621C10.9221 5.949 10.0265 6.46939 9.06192 7.0246C8.02838 7.61442 6.99485 8.23912 5.99594 9.27978C5.10033 10.2167 3.89454 11.7434 3.7912 13.9986C3.72271 15.109 3.96373 16.254 4.48061 17.4685C4.48061 17.5031 4.48061 17.5031 4.51497 17.538C5.16957 19.1342 6.34078 20.8341 7.95989 22.6039C7.99425 22.6733 8.09758 22.6733 8.16655 22.6733C8.16655 22.6733 8.23551 22.6387 8.26988 22.6387C8.33884 22.6041 8.40757 22.5692 8.51114 22.4652L11.9904 24.6511C12.0594 24.6858 12.1627 24.6858 12.2317 24.6165C12.3007 24.5471 12.3007 24.443 12.2317 24.3735L12.1973 24.3389C12.9896 24.686 14.0575 25.1023 14.6777 24.7901C14.712 24.7901 14.7466 24.7555 14.7466 24.7206C14.7466 24.7206 14.781 24.7206 14.781 24.686C15.6422 23.9921 15.16 22.6736 15.1256 22.6389C15.0912 22.6043 15.0566 22.5349 15.0223 22.5349L9.33828 20.2448C9.40725 19.4468 9.30392 18.4059 8.99369 17.0527C8.95933 16.9486 8.95933 16.8097 8.92473 16.7056C9.54469 16.671 11.5084 16.7056 11.9563 18.2323C11.9907 18.3364 12.094 18.4059 12.1976 18.371H12.2319C12.3009 18.3364 12.3353 18.2323 12.3353 18.1629C12.3353 18.1283 11.6807 15.2484 8.92474 14.9708C8.9591 14.7278 9.02807 14.485 9.1314 14.2769C9.57931 14.3115 10.9572 14.5199 11.9907 15.2138C12.5419 15.7341 12.8863 16.1158 12.8863 16.1506C12.9553 16.2201 13.0586 16.2201 13.1276 16.1852H13.1619C13.2309 16.1158 13.2652 16.0117 13.1963 15.9423C12.955 15.526 12.6107 15.1789 12.1974 14.9362C11.6118 14.3463 10.7505 13.6176 9.85496 12.9583C9.92392 12.8542 10.0273 12.7502 10.0962 12.6807C10.6475 12.8542 13.1965 13.6522 13.8857 15.0054C13.9201 15.1095 14.0234 15.1441 14.127 15.1095H14.1614C14.2303 15.0749 14.2647 14.9708 14.2647 14.9013C14.2303 14.7626 13.6101 12.0561 11.4744 11.5357C11.6467 11.4317 11.819 11.3276 11.9567 11.2235C12.4389 11.3276 14.8503 11.9174 17.0896 11.3276L21.3263 13.0274C21.3953 13.062 21.4297 13.062 21.4986 13.0274C21.533 12.9928 21.5676 12.9928 21.5676 12.9579C21.602 12.8538 21.5676 12.7498 21.4986 12.7149L17.7781 10.4943C17.7438 10.4597 17.7092 10.4597 17.6748 10.4597C17.2269 10.4943 16.7792 10.4943 16.3313 10.5291L17.3991 10.078L21.4297 11.8823C21.4987 11.9169 21.533 11.9169 21.602 11.8823C21.6364 11.8477 21.671 11.8477 21.671 11.8129C21.7053 11.7088 21.671 11.6047 21.602 11.5699L17.6058 9.2798L18.3637 8.82866C18.9837 9.03681 22.7042 10.39 24.1857 12.2289C24.4269 12.576 24.5646 12.8187 24.5646 12.8187C24.6336 12.9228 24.7369 12.9574 24.8403 12.8882C24.9436 12.8536 24.9779 12.7146 24.9092 12.6106C24.8059 12.4024 24.7026 12.2289 24.5646 12.0554C23.8757 11.0144 22.1532 8.89788 19.6728 8.13455L19.9141 8.06509C23.6346 8.82842 26.0461 11.9859 26.0805 12.0205C26.1495 12.09 26.2182 12.1246 26.3218 12.09C26.3907 12.0554 26.4251 11.9513 26.4251 11.8819C26.3907 11.7778 26.1838 11.3615 24.358 9.31422C22.36 7.12825 19.0873 7.05904 18.9494 7.05904H18.8804L17.3992 7.51067C18.2261 6.81679 18.9151 6.12291 19.294 5.53282C20.3275 5.56743 28.3886 6.05317 31.3512 9.8353C31.4202 9.90476 31.5235 9.93937 31.5925 9.86991C31.5925 9.86991 31.6268 9.86991 31.6268 9.8353C31.6958 9.76584 31.7302 9.66177 31.6612 9.5577C28.7329 5.845 21.1886 5.25521 19.5351 5.15112C19.5694 5.08166 19.6384 4.97758 19.6728 4.90812C20.6717 4.83866 29.663 4.38777 33.4524 8.37782C33.5214 8.44728 33.6247 8.44728 33.6937 8.41243L33.7281 8.37782C33.797 8.34321 33.797 8.20453 33.7281 8.13506L33.7277 8.13492Z" fill="#F9E4A1"/>
</g>
<defs>
<clipPath id="clip0_28_49">
<rect width="27" height="27" fill="white"/>
</clipPath>
</defs>
</svg>
