<svg width="27" height="27" viewBox="0 0 27 27" fill="none" xmlns="http://www.w3.org/2000/svg">
<g clip-path="url(#clip0_28_45)">
<path d="M33.7277 8.1348C30.0072 4.2488 21.8772 4.4221 19.948 4.52644C21.0159 3.06916 22.8073 1.68116 22.8417 1.64659L25.8043 -0.539382C25.8733 -0.608844 25.9077 -0.712917 25.8387 -0.81699C25.7697 -0.886452 25.6664 -0.921061 25.5974 -0.886451C23.4271 0.223976 20.1201 1.88937 18.8454 2.37513C18.8798 2.34052 18.9144 2.30566 18.9487 2.30566C19.4654 1.92398 20.1889 1.36878 20.4646 0.778935C20.4989 0.709473 20.4989 0.605401 20.4302 0.535939C20.3612 0.466476 20.2579 0.466476 20.1889 0.501329C19.0177 1.26466 17.5709 2.09751 17.3297 2.09751C16.8474 2.09751 13.6091 3.27715 11.749 5.11609C10.9221 5.94888 10.0265 6.46927 9.06192 7.02448C8.02838 7.6143 6.99485 8.239 5.99594 9.27966C5.10033 10.2165 3.89454 11.7433 3.7912 13.9984C3.72271 15.1089 3.96373 16.2539 4.48061 17.4684C4.48061 17.503 4.48061 17.503 4.51497 17.5379C5.16957 19.134 6.34078 20.834 7.95989 22.6037C7.99425 22.6732 8.09758 22.6732 8.16655 22.6732C8.16655 22.6732 8.23551 22.6386 8.26988 22.6386C8.33884 22.604 8.40757 22.5691 8.51114 22.4651L11.9904 24.651C12.0594 24.6856 12.1627 24.6856 12.2317 24.6164C12.3007 24.547 12.3007 24.4429 12.2317 24.3734L12.1973 24.3388C12.9896 24.6859 14.0575 25.1021 14.6777 24.7899C14.712 24.7899 14.7466 24.7553 14.7466 24.7205C14.7466 24.7205 14.781 24.7205 14.781 24.6859C15.6422 23.992 15.16 22.6734 15.1256 22.6388C15.0912 22.6042 15.0566 22.5347 15.0223 22.5347L9.33828 20.2447C9.40725 19.4467 9.30392 18.4057 8.99369 17.0526C8.95933 16.9485 8.95933 16.8096 8.92473 16.7055C9.54469 16.6709 11.5084 16.7055 11.9563 18.2322C11.9907 18.3363 12.094 18.4058 12.1976 18.3709H12.2319C12.3009 18.3363 12.3353 18.2322 12.3353 18.1628C12.3353 18.1281 11.6807 15.2483 8.92474 14.9706C8.9591 14.7276 9.02807 14.4849 9.1314 14.2768C9.57931 14.3114 10.9572 14.5198 11.9907 15.2136C12.5419 15.734 12.8863 16.1157 12.8863 16.1505C12.9553 16.22 13.0586 16.22 13.1276 16.1851H13.1619C13.2309 16.1157 13.2652 16.0116 13.1963 15.9421C12.955 15.5258 12.6107 15.1788 12.1974 14.936C11.6118 14.3462 10.7505 13.6175 9.85496 12.9582C9.92392 12.8541 10.0273 12.75 10.0962 12.6806C10.6475 12.8541 13.1965 13.6521 13.8857 15.0053C13.9201 15.1094 14.0234 15.144 14.127 15.1094H14.1614C14.2303 15.0747 14.2647 14.9707 14.2647 14.9012C14.2303 14.7625 13.6101 12.0559 11.4744 11.5356C11.6467 11.4315 11.819 11.3275 11.9567 11.2234C12.4389 11.3275 14.8503 11.9173 17.0896 11.3275L21.3263 13.0272C21.3953 13.0618 21.4297 13.0618 21.4986 13.0272C21.533 12.9926 21.5676 12.9926 21.5676 12.9578C21.602 12.8537 21.5676 12.7496 21.4986 12.7148L17.7781 10.4942C17.7438 10.4596 17.7092 10.4596 17.6748 10.4596C17.2269 10.4942 16.7792 10.4942 16.3313 10.529L17.3991 10.0779L21.4297 11.8822C21.4987 11.9168 21.533 11.9168 21.602 11.8822C21.6364 11.8476 21.671 11.8476 21.671 11.8127C21.7053 11.7087 21.671 11.6046 21.602 11.5697L17.6058 9.27968L18.3637 8.82854C18.9837 9.03668 22.7042 10.3898 24.1857 12.2288C24.4269 12.5759 24.5646 12.8186 24.5646 12.8186C24.6336 12.9227 24.7369 12.9573 24.8403 12.8881C24.9436 12.8535 24.9779 12.7145 24.9092 12.6105C24.8059 12.4023 24.7026 12.2288 24.5646 12.0552C23.8757 11.0143 22.1532 8.89776 19.6728 8.13443L19.9141 8.06497C23.6346 8.8283 26.0461 11.9858 26.0805 12.0204C26.1495 12.0899 26.2182 12.1245 26.3218 12.0899C26.3907 12.0553 26.4251 11.9512 26.4251 11.8817C26.3907 11.7777 26.1838 11.3614 24.358 9.3141C22.36 7.12813 19.0873 7.05892 18.9494 7.05892H18.8804L17.3992 7.51055C18.2261 6.81667 18.9151 6.12279 19.294 5.53269C20.3275 5.5673 28.3886 6.05305 31.3512 9.83518C31.4202 9.90464 31.5235 9.93925 31.5925 9.86979C31.5925 9.86979 31.6268 9.86979 31.6268 9.83518C31.6958 9.76572 31.7302 9.66165 31.6612 9.55757C28.7329 5.84487 21.1886 5.25509 19.5351 5.151C19.5694 5.08153 19.6384 4.97746 19.6728 4.908C20.6717 4.83854 29.663 4.38764 33.4524 8.3777C33.5214 8.44716 33.6247 8.44716 33.6937 8.41231L33.7281 8.3777C33.797 8.34309 33.797 8.2044 33.7281 8.13494L33.7277 8.1348Z" fill="#F7D673"/>
</g>
<defs>
<clipPath id="clip0_28_45">
<rect width="27" height="27" fill="white"/>
</clipPath>
</defs>
</svg>
