<svg width="27" height="27" viewBox="0 0 27 27" fill="none" xmlns="http://www.w3.org/2000/svg">
<g clip-path="url(#clip0_28_47)">
<path d="M35.7277 8.13492C32.0072 4.24892 23.8772 4.42222 21.948 4.52656C23.0159 3.06929 24.8073 1.68128 24.8417 1.64671L27.8043 -0.53926C27.8733 -0.608722 27.9077 -0.712795 27.8387 -0.816867C27.7697 -0.88633 27.6664 -0.920939 27.5974 -0.886329C25.4271 0.224098 22.1201 1.88949 20.8454 2.37525C20.8798 2.34064 20.9144 2.30579 20.9487 2.30579C21.4654 1.92411 22.1889 1.36891 22.4646 0.779057C22.4989 0.709595 22.4989 0.605523 22.4302 0.536061C22.3612 0.466599 22.2579 0.466598 22.1889 0.501451C21.0177 1.26478 19.5709 2.09764 19.3297 2.09764C18.8474 2.09764 15.6091 3.27727 13.749 5.11621C12.9221 5.949 12.0265 6.46939 11.0619 7.0246C10.0284 7.61442 8.99485 8.23912 7.99594 9.27978C7.10033 10.2167 5.89454 11.7434 5.7912 13.9986C5.72271 15.109 5.96373 16.254 6.48061 17.4685C6.48061 17.5031 6.48061 17.5031 6.51497 17.538C7.16957 19.1342 8.34078 20.8341 9.95989 22.6039C9.99425 22.6733 10.0976 22.6733 10.1665 22.6733C10.1665 22.6733 10.2355 22.6387 10.2699 22.6387C10.3388 22.6041 10.4076 22.5692 10.5111 22.4652L13.9904 24.6511C14.0594 24.6858 14.1627 24.6858 14.2317 24.6165C14.3007 24.5471 14.3007 24.443 14.2317 24.3735L14.1973 24.3389C14.9896 24.686 16.0575 25.1023 16.6777 24.7901C16.712 24.7901 16.7466 24.7555 16.7466 24.7206C16.7466 24.7206 16.781 24.7206 16.781 24.686C17.6422 23.9921 17.16 22.6736 17.1256 22.6389C17.0912 22.6043 17.0566 22.5349 17.0223 22.5349L11.3383 20.2448C11.4072 19.4468 11.3039 18.4059 10.9937 17.0527C10.9593 16.9486 10.9593 16.8097 10.9247 16.7056C11.5447 16.671 13.5084 16.7056 13.9563 18.2323C13.9907 18.3364 14.094 18.4059 14.1976 18.371H14.2319C14.3009 18.3364 14.3353 18.2323 14.3353 18.1629C14.3353 18.1283 13.6807 15.2484 10.9247 14.9708C10.9591 14.7278 11.0281 14.485 11.1314 14.2769C11.5793 14.3115 12.9572 14.5199 13.9907 15.2138C14.5419 15.7341 14.8863 16.1158 14.8863 16.1506C14.9553 16.2201 15.0586 16.2201 15.1276 16.1852H15.1619C15.2309 16.1158 15.2652 16.0117 15.1963 15.9423C14.955 15.526 14.6107 15.1789 14.1974 14.9362C13.6118 14.3463 12.7505 13.6176 11.855 12.9583C11.9239 12.8542 12.0273 12.7502 12.0962 12.6807C12.6475 12.8542 15.1965 13.6522 15.8857 15.0054C15.9201 15.1095 16.0234 15.1441 16.127 15.1095H16.1614C16.2303 15.0749 16.2647 14.9708 16.2647 14.9013C16.2303 14.7626 15.6101 12.0561 13.4744 11.5357C13.6467 11.4317 13.819 11.3276 13.9567 11.2235C14.4389 11.3276 16.8503 11.9174 19.0896 11.3276L23.3263 13.0274C23.3953 13.062 23.4297 13.062 23.4986 13.0274C23.533 12.9928 23.5676 12.9928 23.5676 12.9579C23.602 12.8538 23.5676 12.7498 23.4986 12.7149L19.7781 10.4943C19.7438 10.4597 19.7092 10.4597 19.6748 10.4597C19.2269 10.4943 18.7792 10.4943 18.3313 10.5291L19.3991 10.078L23.4297 11.8823C23.4987 11.9169 23.533 11.9169 23.602 11.8823C23.6364 11.8477 23.671 11.8477 23.671 11.8129C23.7053 11.7088 23.671 11.6047 23.602 11.5699L19.6058 9.2798L20.3637 8.82866C20.9837 9.03681 24.7042 10.39 26.1857 12.2289C26.4269 12.576 26.5646 12.8187 26.5646 12.8187C26.6336 12.9228 26.7369 12.9574 26.8403 12.8882C26.9436 12.8536 26.9779 12.7146 26.9092 12.6106C26.8059 12.4024 26.7026 12.2289 26.5646 12.0554C25.8757 11.0144 24.1532 8.89788 21.6728 8.13455L21.9141 8.06509C25.6346 8.82842 28.0461 11.9859 28.0805 12.0205C28.1495 12.09 28.2182 12.1246 28.3218 12.09C28.3907 12.0554 28.4251 11.9513 28.4251 11.8819C28.3907 11.7778 28.1838 11.3615 26.358 9.31422C24.36 7.12825 21.0873 7.05904 20.9494 7.05904H20.8804L19.3992 7.51067C20.2261 6.81679 20.9151 6.12291 21.294 5.53282C22.3275 5.56743 30.3886 6.05317 33.3512 9.8353C33.4202 9.90476 33.5235 9.93937 33.5925 9.86991C33.5925 9.86991 33.6268 9.86991 33.6268 9.8353C33.6958 9.76584 33.7302 9.66177 33.6612 9.5577C30.7329 5.845 23.1886 5.25521 21.5351 5.15112C21.5694 5.08166 21.6384 4.97758 21.6728 4.90812C22.6717 4.83866 31.663 4.38777 35.4524 8.37782C35.5214 8.44728 35.6247 8.44728 35.6937 8.41243L35.7281 8.37782C35.797 8.34321 35.797 8.20453 35.7281 8.13506L35.7277 8.13492Z" fill="#B36766"/>
</g>
<defs>
<clipPath id="clip0_28_47">
<rect width="27" height="27" fill="white"/>
</clipPath>
</defs>
</svg>
