<svg width="150" height="150" viewBox="0 0 150 150" fill="none" xmlns="http://www.w3.org/2000/svg">
<g clip-path="url(#clip0_18_127)">
<path d="M-50.6876 49.2089C-28.3645 25.8929 20.4155 26.9327 31.9904 27.5588C25.5832 18.8151 14.8347 10.4871 14.6284 10.2797L-3.14737 -2.83615C-3.56116 -3.25292 -3.76733 -3.87736 -3.35353 -4.50179C-2.93973 -4.91856 -2.31976 -5.12622 -1.90598 -4.91856C11.1162 1.744 30.9582 11.7364 38.6063 14.6509C38.4001 14.4432 38.1925 14.2341 37.9863 14.2341C34.8865 11.944 30.5453 8.61285 28.8913 5.07376C28.6852 4.65698 28.6852 4.03255 29.0975 3.61578C29.5113 3.19901 30.1313 3.199 30.5451 3.40812C37.5723 7.98812 46.2535 12.9852 47.7008 12.9852C50.5944 12.9852 70.0238 20.063 81.185 31.0967C86.146 36.0934 91.5197 39.2158 97.3072 42.547C103.508 46.0859 109.71 49.8341 115.703 56.0781C121.077 61.6994 128.311 70.8598 128.932 84.3908C129.342 91.0534 127.896 97.9234 124.795 105.211C124.795 105.418 124.795 105.418 124.589 105.627C120.661 115.204 113.634 125.404 103.919 136.023C103.713 136.439 103.093 136.439 102.679 136.439C102.679 136.439 102.266 136.232 102.059 136.232C101.646 136.024 101.233 135.815 100.612 135.19L79.736 148.306C79.3223 148.514 78.7023 148.514 78.2885 148.099C77.8747 147.682 77.8747 147.057 78.2885 146.641L78.4947 146.433C73.741 148.515 67.3339 151.013 63.6126 149.14C63.4064 149.14 63.1988 148.932 63.1988 148.723C63.1988 148.723 62.9926 148.723 62.9926 148.515C57.8253 144.352 60.7189 136.441 60.9251 136.233C61.1313 136.025 61.3389 135.609 61.5451 135.609L95.649 121.868C95.2352 117.08 95.8552 110.835 97.7166 102.715C97.9227 102.091 97.9227 101.258 98.1304 100.633C94.4106 100.425 82.6282 100.633 79.9408 109.793C79.7347 110.418 79.1147 110.835 78.4933 110.626H78.2871C77.8733 110.418 77.6671 109.793 77.6671 109.377C77.6671 109.169 81.5947 91.8898 98.1303 90.224C97.9241 88.766 97.5103 87.3095 96.8903 86.0607C94.2029 86.2683 85.9355 87.5187 79.7347 91.682C76.4272 94.8041 74.361 97.0943 74.361 97.3032C73.9472 97.72 73.3272 97.72 72.9134 97.5109H72.7072C72.2934 97.0941 72.0872 96.4697 72.501 96.0529C73.9486 93.5552 76.0147 91.4729 78.4945 90.0164C82.0081 86.4775 87.1756 82.1051 92.549 78.1493C92.1352 77.5249 91.5152 76.9004 91.1014 76.4837C87.794 77.5249 72.4996 82.3128 68.3642 90.4318C68.1581 91.0563 67.5381 91.2639 66.9167 91.0563H66.7105C66.2967 90.8486 66.0905 90.2242 66.0905 89.8074C66.2967 88.9753 70.0181 72.7357 82.8324 69.6138C81.7987 68.9893 80.7649 68.3649 79.9388 67.7405C77.0451 68.3649 62.5768 71.9037 49.1408 68.3649L23.7207 78.5636C23.3069 78.7712 23.1007 78.7712 22.6869 78.5636C22.4807 78.3559 22.2731 78.3559 22.2731 78.1468C22.0669 77.5224 22.2731 76.8979 22.6869 76.6888L45.01 63.3652C45.2161 63.1575 45.4238 63.1575 45.6299 63.1575C48.3174 63.3652 51.0037 63.3652 53.6911 63.5743L47.2839 60.8675L23.1006 71.6933C22.6868 71.901 22.4806 71.901 22.0668 71.6933C21.8606 71.4857 21.653 71.4857 21.653 71.2766C21.4468 70.6521 21.653 70.0277 22.0668 69.8186L46.0438 56.0782L41.4965 53.3714C37.7767 54.6203 15.4533 62.7392 6.56467 73.7728C5.1171 75.8552 4.29094 77.3117 4.29094 77.3117C3.87714 77.9362 3.25717 78.1438 2.6372 77.7285C2.01722 77.5209 1.81105 76.6873 2.2234 76.0629C2.84338 74.814 3.46335 73.7728 4.29094 72.7316C8.42447 66.4858 18.7592 53.7867 33.6416 49.2067L32.1941 48.7899C9.87101 53.3699 -4.59764 72.3148 -4.80434 72.5227C-5.21812 72.9394 -5.63049 73.1471 -6.25191 72.9394C-6.6657 72.7318 -6.87189 72.1073 -6.87189 71.6906C-6.66571 71.0661 -5.4243 68.5684 5.53056 56.2847C17.5189 43.1689 37.1549 42.7537 37.9824 42.7537H38.3962L47.2834 45.4634C42.3223 41.3002 38.1884 37.1369 35.9148 33.5963C29.7135 33.804 -18.6527 36.7184 -36.4285 59.4112C-36.8423 59.828 -37.4623 60.0357 -37.8761 59.6189C-37.8761 59.6189 -38.0822 59.6189 -38.0822 59.4112C-38.496 58.9945 -38.7022 58.37 -38.2884 57.7456C-20.7186 35.4694 24.5469 31.9307 34.4682 31.3061C34.2621 30.8894 33.8483 30.2649 33.6421 29.8481C27.6487 29.4314 -26.2995 26.726 -49.0359 50.6663C-49.4497 51.0831 -50.0697 51.0831 -50.4835 50.874L-50.6897 50.6663C-51.1034 50.4587 -51.1034 49.6266 -50.6897 49.2098L-50.6876 49.2089Z" fill="#670100"/>
</g>
<defs>
<clipPath id="clip0_18_127">
<rect width="150" height="150" fill="white" transform="matrix(-1 0 0 1 150 0)"/>
</clipPath>
</defs>
</svg>
