<svg width="32" height="31" viewBox="0 0 32 31" fill="none" xmlns="http://www.w3.org/2000/svg">
<g clip-path="url(#clip0_103_9)">
<path d="M32 15.4894C32 7.13256 24.836 0.357056 16 0.357056C7.164 0.357056 0 7.13256 0 15.4894C0 23.0429 5.85067 29.3027 13.5 30.4376V19.8639H9.43733V15.4881H13.5V12.1565C13.5 8.36458 15.8893 6.26875 19.544 6.26875C21.2933 6.26875 23.1253 6.5651 23.1253 6.5651V10.2889H21.1067C19.1187 10.2889 18.4987 11.4553 18.4987 12.6521V15.4894H22.936L22.2267 19.8651H18.4987V30.4388C26.1493 29.3027 32 23.0417 32 15.4894Z" fill="#F3C22D"/>
</g>
<defs>
<clipPath id="clip0_103_9">
<rect width="32" height="30.2646" fill="white" transform="translate(0 0.264648)"/>
</clipPath>
</defs>
</svg>
