<svg width="32" height="31" viewBox="0 0 32 31" fill="none" xmlns="http://www.w3.org/2000/svg">
<g clip-path="url(#clip0_103_11)">
<path d="M16 0.264648C11.6533 0.264648 11.1107 0.283564 9.404 0.355442C7.7 0.431104 6.54 0.68457 5.52 1.0591C4.468 1.44497 3.57467 1.96325 2.68533 2.80435C1.796 3.64546 1.24667 4.48909 0.84 5.4853C0.444 6.44999 0.174667 7.54708 0.096 9.15867C0.016 10.7728 0 11.286 0 15.397C0 19.508 0.02 20.0211 0.096 21.6353C0.176 23.2456 0.444 24.344 0.84 25.3086C1.248 26.3024 1.796 27.1485 2.68533 27.9896C3.57467 28.8295 4.46667 29.3502 5.52 29.7348C6.54133 30.1081 7.70133 30.3641 9.404 30.4385C11.1107 30.5142 11.6533 30.5293 16 30.5293C20.3467 30.5293 20.8893 30.5104 22.596 30.4385C24.2987 30.3628 25.46 30.1081 26.48 29.7348C27.5307 29.349 28.4253 28.8295 29.3147 27.9896C30.2027 27.1485 30.7533 26.3061 31.16 25.3086C31.5547 24.344 31.8253 23.2456 31.904 21.6353C31.984 20.0211 32 19.508 32 15.397C32 11.286 31.98 10.7728 31.904 9.15867C31.824 7.54834 31.5547 6.44873 31.16 5.4853C30.752 4.49035 30.2027 3.64546 29.3147 2.80435C28.4253 1.96325 27.5347 1.44371 26.48 1.0591C25.46 0.68457 24.2987 0.429843 22.596 0.355442C20.8893 0.279781 20.3467 0.264648 16 0.264648ZM16 2.98847C20.2707 2.98847 20.78 3.00864 22.4667 3.078C24.0267 3.14736 24.8733 3.392 25.436 3.60133C26.1853 3.87497 26.716 4.20284 27.2787 4.73121C27.8373 5.26084 28.184 5.76399 28.4733 6.47268C28.692 7.00484 28.9533 7.80559 29.024 9.28099C29.1 10.8774 29.1173 11.3566 29.1173 15.397C29.1173 19.4373 29.0973 19.9178 29.0187 21.513C28.9373 22.9884 28.6773 23.7891 28.4573 24.3213C28.1587 25.0299 27.8187 25.5318 27.2587 26.064C26.7 26.5923 26.16 26.9202 25.4187 27.1938C24.8587 27.4007 23.9987 27.6478 22.4387 27.7147C20.74 27.7866 20.24 27.8029 15.96 27.8029C11.6787 27.8029 11.1787 27.784 9.48133 27.7097C7.92 27.6327 7.06 27.3868 6.5 27.1787C5.74133 26.8963 5.22 26.5747 4.66133 26.0451C4.1 25.5167 3.74133 25.006 3.46133 24.3049C3.24133 23.7753 2.98267 22.9619 2.90133 21.4865C2.84133 19.8976 2.82 19.407 2.82 15.3781C2.82 11.3478 2.84133 10.856 2.90133 9.24821C2.98267 7.77281 3.24133 6.9607 3.46133 6.43107C3.74133 5.71229 4.1 5.22048 4.66133 4.6896C5.22 4.16122 5.74133 3.82074 6.5 3.55719C7.06 3.34786 7.90133 3.10196 9.46133 3.0263C11.1613 2.96955 11.6613 2.95064 15.94 2.95064L16 2.98847ZM16 7.62652C11.46 7.62652 7.784 11.107 7.784 15.397C7.784 19.6908 11.464 23.1674 16 23.1674C20.54 23.1674 24.216 19.687 24.216 15.397C24.216 11.1032 20.536 7.62652 16 7.62652ZM16 20.441C13.0533 20.441 10.6667 18.1839 10.6667 15.397C10.6667 12.6101 13.0533 10.3529 16 10.3529C18.9467 10.3529 21.3333 12.6101 21.3333 15.397C21.3333 18.1839 18.9467 20.441 16 20.441ZM26.4613 7.32009C26.4613 8.32261 25.6 9.13597 24.5413 9.13597C23.4813 9.13597 22.6213 8.32135 22.6213 7.32009C22.6213 6.31884 23.4827 5.50547 24.5413 5.50547C25.5987 5.50422 26.4613 6.31884 26.4613 7.32009Z" fill="#F3C22D"/>
</g>
<defs>
<clipPath id="clip0_103_11">
<rect width="32" height="30.2646" fill="white" transform="translate(0 0.264648)"/>
</clipPath>
</defs>
</svg>
